<svg id="246a53d3-703b-4d7e-9b2f-4b4f48b24376" data-name="Слой 1" xmlns="http://www.w3.org/2000/svg" xmlns:xlink="http://www.w3.org/1999/xlink" viewBox="0 0 783.34 870.73"><defs><style>.\39 b8652a6-9167-4332-a9ca-cf33e699096f{fill:#fe532c;}.\37 8a5e29f-7a73-4b98-aa95-db6d96af2aa0{fill:url(#3b74ef5c-cbf2-4817-a69e-26e05c802b86);}.a83d75b0-a7ee-4b6a-a3c9-50fa6341b3e4{fill:url(#72320429-3109-4872-817c-ceab37c8146b);}.\32 31a49fb-0244-467c-b743-363399cdab21{fill:url(#86be50b6-cde9-43ac-b57b-f386bb609c89);}</style><linearGradient id="3b74ef5c-cbf2-4817-a69e-26e05c802b86" x1="70.16" y1="900.16" x2="407.78" y2="315.37" gradientUnits="userSpaceOnUse"><stop offset="0" stop-color="#403d75"/><stop offset="1" stop-color="#2d2d44"/></linearGradient><linearGradient id="72320429-3109-4872-817c-ceab37c8146b" x1="456.78" y1="313.98" x2="119.16" y2="898.77" gradientTransform="matrix(-1, 0, 0, 1, 1071, 0)" gradientUnits="userSpaceOnUse"><stop offset="0" stop-color="#413f74"/><stop offset="1" stop-color="#2d2d44"/></linearGradient><linearGradient id="86be50b6-cde9-43ac-b57b-f386bb609c89" x1="515.39" y1="145.3" x2="515.39" y2="265.79" xlink:href="#3b74ef5c-cbf2-4817-a69e-26e05c802b86"/></defs><title>МПТ - лого</title><path class="9b8652a6-9167-4332-a9ca-cf33e699096f" d="M138.51,145.34,412.37,325.06a42.49,42.49,0,0,1,19.18,35.53V916.82a20,20,0,0,0,20.18,20l118.89-1a20,20,0,0,0,19.83-20V359.28a42.5,42.5,0,0,1,19.29-35.6L883.38,145.33a42.52,42.52,0,0,0,19.29-35.61h0c0-33.8-37.55-54.08-65.81-35.53L590.45,235.9l-55,34.36a42.5,42.5,0,0,1-45.82-.49l-58.09-38.06L184.81,73.09c-28.28-18.18-65.48,2.13-65.48,35.75v1A42.5,42.5,0,0,0,138.51,145.34Z" transform="translate(-119.33 -66.27)"/><path class="78a5e29f-7a73-4b98-aa95-db6d96af2aa0" d="M119.33,917V183.48a20,20,0,0,1,30.87-16.79L590.45,451.94v184L297.74,471.46V917a20,20,0,0,1-20,20H139.33A20,20,0,0,1,119.33,917Z" transform="translate(-119.33 -66.27)"/><path class="a83d75b0-a7ee-4b6a-a3c9-50fa6341b3e4" d="M902.67,915.61V182.09A20,20,0,0,0,871.8,165.3L431.55,450.55v184L724.26,470.06V915.61a20,20,0,0,0,20,20H882.67A20,20,0,0,0,902.67,915.61Z" transform="translate(-119.33 -66.27)"/><path class="231a49fb-0244-467c-b743-363399cdab21" d="M375.52,182.29l129.79,80.5a20,20,0,0,0,21.14,0l128.87-80.49c17-10.65,9.5-37-10.59-37H386.06C365.93,145.3,358.41,171.68,375.52,182.29Z" transform="translate(-119.33 -66.27)"/></svg>